PathFileType	4	(X/Y/Z)	D:\Long Term Storage\D'Arcy Smith\Coord8.trc
DataRate	CameraRate	NumFrames	NumMarkers	Units	OrigDataRate	OrigDataStartFrame	OrigNumFrames
120.00	120.00	      150	4	mm	120.00	643	      5136
Frame#	Time	M1			M2			M3			M4			
		X1	Y1	Z1	X2	Y2	Z2	X3	Y3	Z3	X4	Y4	Z4	

643	5.350	1092.94592	346.37555	379.58908	1580.48254	404.25790	287.10626							
644	5.358	1096.68518	353.83734	359.36810	1578.60999	412.78217	274.32013							
645	5.367	1099.64246	362.57993	342.51807	1580.17102	422.75372	261.58060							
646	5.375	1102.89526	372.04977	325.28055	1579.41333	431.29309	250.97922							
647	5.383	1107.13574	382.60892	306.47495	1578.05347	439.73160	241.67197							
648	5.392	1110.09082	393.15353	290.48416	1578.77502	447.80615	233.17186							
649	5.400	1112.77905	404.04257	274.75409	1579.49854	454.95346	225.72545							
650	5.408	1115.30579	415.03275	259.97375	1580.10938	461.19696	219.81039							
651	5.417	1118.50928	427.01459	243.89107	1582.38574	466.73380	215.18620							
652	5.425	1119.79688	437.60089	230.98900	1582.29370	470.59122	212.26309							
653	5.433	1121.20691	447.09869	221.40559	1585.04187	473.79523	210.57483							
654	5.442	1122.18372	457.23022	210.69710	1585.19604	474.95496	210.39746							
655	5.450	1121.95178	465.45224	202.40654	1586.85852	475.72565	210.96732							
656	5.458	1122.43201	472.61774	196.07443	1588.73120	475.59781	212.12332							
657	5.467	1121.62183	478.43268	191.32428	1590.51807	473.36844	214.98648							
658	5.475	1120.12976	482.89734	187.73645	1594.05798	471.57086	217.53535							
659	5.483	1118.08960	485.88419	185.10658	1596.08643	468.35483	220.94510							
660	5.492	1116.33569	487.16235	184.73489	1597.87927	464.42468	224.79031							
661	5.500	1114.08386	487.06625	184.93884	1599.75037	459.78961	228.98395							
662	5.508	1110.94666	485.76688	186.05525	1601.33691	454.57089	233.59331							
663	5.517	1109.24121	483.10861	188.53600	1602.70654	448.67297	238.56395							
664	5.525	1106.53882	479.47580	191.60678	1604.05359	442.28687	243.71112							
665	5.533	1104.07068	474.63373	195.19333	1604.96570	435.11481	249.58388							
666	5.542	1102.01367	469.06024	199.34206	1606.09448	427.68298	255.72385							
667	5.550	1100.25439	462.67581	204.00040	1607.77637	420.20544	262.96487							
668	5.558	1098.65479	455.42953	209.23312	1608.60754	411.65268	271.27142							
669	5.567	1096.78394	447.50073	214.57088	1609.39795	402.74774	280.65955							
670	5.575	1096.14282	438.77859	221.22528	1610.50195	393.81052	291.20511							
671	5.583	1095.58582	429.64264	228.00058	1611.32141	384.71979	302.96136							
672	5.592	1094.97876	419.82565	235.15358	1612.47217	375.97363	315.87958							
673	5.600	1094.82373	409.64081	243.06641	1613.97729	367.65594	330.01941							
674	5.608	1094.33545	398.66684	253.13651	1616.77124	359.77481	345.65482							
675	5.617	1094.40332	387.59454	262.26453	1618.02856	352.50812	361.52609							
676	5.625	1092.98694	375.21796	274.78293	1619.02295	346.13589	378.20505							
677	5.633	1093.72729	364.23575	284.97391	1619.25525	339.73199	395.20264							
678	5.642	1093.62952	353.00256	297.61932	1619.80371	335.49036	412.45459							
679	5.650	1092.75049	341.99731	312.48587	1620.33704	331.88455	430.04813							
680	5.658	1092.56470	332.06235	327.38977	1620.68982	329.20340	447.03854							
681	5.667	1093.00098	323.28976	342.39368	1620.99585	327.73694	463.60190							
682	5.675	1091.77075	315.82294	361.08221	1621.23193	327.17044	479.19656							
683	5.683	1089.92468	309.02188	381.28119	1621.42651	327.39471	493.98901							
684	5.692	1088.96655	303.84982	400.18179	1621.39490	328.26117	507.48007							
685	5.700	1087.83337	300.16190	418.78723	1621.27808	329.56177	519.63953							
686	5.708	1086.87170	298.14655	436.16739	1621.44519	331.60690	530.09497							
687	5.717	1085.66345	296.93939	453.98523	1621.33887	333.61478	539.60272							
688	5.725	1084.30005	296.79529	472.02756	1621.25513	335.51010	547.80176							
689	5.733	1082.87109	297.52118	489.29578	1621.06140	337.32352	554.79199							
690	5.742	1081.22461	298.93088	505.78271	1620.90979	338.97815	560.54681							
691	5.750	1079.53516	300.84140	521.11847	1620.66711	340.48166	565.03174							
692	5.758	1077.56860	303.25204	535.28992	1620.39746	341.84003	568.11346							
693	5.767	1075.67676	305.01096	547.19421	1619.98694	342.83969	569.87854							
694	5.775	1072.82495	307.81674	562.89465	1619.43250	343.48657	570.18982							
695	5.783	1070.17639	310.40869	573.88721	1618.79724	343.67502	569.07013							
696	5.792	1067.93433	313.09232	582.45715	1617.98193	343.49692	566.51276							
697	5.800	1065.43494	315.65482	589.99219	1617.21924	343.08444	562.50299							
698	5.808	1062.77161	318.09970	596.97644	1615.95972	342.37375	556.99438							
699	5.817	1059.87512	320.53064	602.44049	1614.66919	341.63330	549.95837							
700	5.825	1056.92859	322.91937	607.23792	1613.33398	341.02048	541.27722							
701	5.833	1054.05420	324.80197	609.36249	1611.66858	340.33224	531.08868							
702	5.842	1051.48828	326.99634	610.94476	1610.21753	340.02090	519.08234							
703	5.850	1048.92407	328.51645	610.47491	1607.01648	340.00323	505.27744							
704	5.858	1046.88086	329.90100	608.18854	1605.71570	340.28601	491.09930							
705	5.867	1045.21021	330.74969	603.49170	1603.22888	341.26199	474.70850							
706	5.875	1043.92737	330.93842	597.33221	1599.05286	342.47757	457.17810							
707	5.883	1043.36938	331.13971	588.45703	1596.91809	344.92755	438.57037							
708	5.892	1043.25537	330.60046	578.24805	1592.76550	348.12689	419.13699							
709	5.900	1043.81213	329.81015	565.16730	1589.61157	352.37656	398.42532							
710	5.908	1044.67651	328.98111	551.18158	1586.77295	357.92279	378.37506							
711	5.917	1047.11597	328.43262	533.51361	1584.46802	364.54034	358.73618							
712	5.925	1049.65430	328.60822	515.81464	1581.17114	371.94525	339.16336							
713	5.933	1053.14868	329.94388	493.83563	1578.15662	380.01364	320.52115							
714	5.942	1055.78552	331.44690	474.02823	1575.16406	388.78113	303.01657							
715	5.950	1060.68396	334.18951	452.71814	1572.08704	397.99515	286.79840							
716	5.958	1064.55884	337.53107	434.30115	1569.03809	407.32935	272.07220							
717	5.967	1069.15125	342.39581	413.28931	1564.34827	415.49649	259.11227							
718	5.975	1074.29187	347.94196	389.22849	1562.20813	424.60526	247.64415							
719	5.983	1079.72778	354.08957	370.15930	1560.23071	433.13242	237.96826							
720	5.992	1085.46643	363.02640	347.92932	1558.86731	441.00092	229.31033							
721	6.000	1089.68665	371.33286	329.44202	1558.20703	447.88828	222.01382							
722	6.008	1095.21509	380.92139	309.84583	1557.82031	453.68619	216.88728							
723	6.017	1099.60510	390.77563	292.14600	1557.98071	458.29974	213.27809							
724	6.025	1104.03613	400.99329	275.73428	1558.07666	461.56937	211.57573							
725	6.033	1108.36926	411.44781	259.48163	1559.86450	463.66806	210.90768							
726	6.042	1112.45166	422.64435	244.73160	1560.38977	464.36584	212.00577							
727	6.050	1115.22620	432.05981	233.38777	1562.81677	463.77783	213.30193							
728	6.058	1116.98279	440.66202	223.18094	1565.44653	462.59720	215.90453							
729	6.067	1118.05383	448.97244	215.14958	1568.63025	460.67111	218.94270							
730	6.075	1118.70728	455.62616	208.57426	1571.56787	458.11298	222.16154							
731	6.083	1118.28687	461.20703	203.54898	1574.56213	453.92242	226.80365							
732	6.092	1117.61902	465.57077	199.84732	1577.12939	449.58118	231.48138							
733	6.100	1116.05432	468.41449	197.18398	1581.41284	444.91779	236.45415							
734	6.108	1113.77075	470.07166	195.43401	1585.55090	440.00098	241.37991							
735	6.117	1111.74109	470.30869	195.66994	1588.34619	434.33081	246.37245							
736	6.125	1109.04016	469.40286	196.06458	1591.19702	427.86124	252.38058							
737	6.133	1105.72803	467.50049	197.02008	1593.93811	421.47440	258.24207							
738	6.142	1103.32190	464.68436	199.35237	1597.98315	415.06570	265.41660							
739	6.150	1100.24829	460.85776	201.69232	1601.02954	407.79654	273.04163							
740	6.158	1096.75330	456.22766	204.33661	1603.51990	399.99811	281.53192							
741	6.167	1093.91565	450.84143	207.65947	1606.09253	391.94901	291.02896							
742	6.175	1091.26929	444.48941	212.22481	1608.12170	383.56320	301.58649							
743	6.183	1088.93396	437.60587	216.44518	1610.13135	375.25598	313.40826							
744	6.192	1086.87207	430.19943	221.37270	1612.17371	367.09143	326.39319							
745	6.200	1084.66687	422.14886	226.28363	1613.86316	359.13541	340.75580							
746	6.208	1082.91138	413.43335	232.71269	1615.68494	351.63812	356.34515							
747	6.217	1082.00220	404.14719	240.32291	1616.81860	344.53537	373.19693							
748	6.225	1080.50659	393.98102	246.73630	1618.99963	337.68771	391.59680							
749	6.233	1080.02979	383.38718	259.20950	1619.11108	332.80942	410.34488							
750	6.242	1079.00061	372.58551	270.41122	1619.55579	328.99503	430.01901							
751	6.250	1078.16003	361.13837	283.12289	1619.51819	326.32617	449.23013							
752	6.258	1078.36194	350.44650	295.87723	1619.02283	324.83389	468.28271							
753	6.267	1077.29468	340.04068	311.90271	1618.30603	324.49286	486.62921							
754	6.275	1078.09302	330.99417	326.57791	1617.32971	325.14063	503.87787							
755	6.283	1077.81860	322.62479	343.82690	1615.90149	326.77530	519.86133							
756	6.292	1077.51038	315.58881	362.17413	1614.53943	328.85635	533.83881							
757	6.300	1075.94397	310.05734	383.37128	1613.19885	331.68515	546.61517							
758	6.308	1076.89429	305.68262	400.22437	1611.69250	334.66705	557.70947							
759	6.317	1075.22400	302.30136	421.54938	1610.40662	337.70053	566.92297							
760	6.325	1074.67163	300.27020	440.86404	1609.33472	340.76816	574.14825							
761	6.333	1073.87329	299.48804	459.29889	1607.96716	343.34918	579.38788							
762	6.342	1073.23682	299.55228	477.43582	1606.85034	345.39651	582.47198							
763	6.350	1072.33105	300.54303	495.08435	1605.83887	346.85492	583.37512							
764	6.358	1071.66663	302.17001	511.68536	1604.77307	347.52890	582.16138							
765	6.367	1070.83313	304.45081	527.10455	1603.79224	347.46298	578.82422							
766	6.375	1069.93628	306.73871	541.55518	1602.34534	347.03635	573.46442							
767	6.383	1068.41968	309.33292	555.41272	1601.34668	345.98413	566.41974							
768	6.392	1067.91675	312.13004	566.74298	1599.99792	344.49533	557.76660							
769	6.400	1067.02185	314.89090	576.68903	1598.93713	343.03082	547.76990							
770	6.408	1066.27454	317.70563	584.99451	1597.85779	341.66229	536.41467							
771	6.417	1065.32007	320.50662	592.80768	1596.83313	340.44043	524.24316							
772	6.425	1064.50769	322.90405	598.41846	1596.22473	339.82657	511.19870							
773	6.433	1063.70996	325.26392	603.15564	1594.27820	339.34958	498.15051							
774	6.442	1062.75134	327.08377	605.73303	1594.26611	339.57660	484.07712							
775	6.450	1062.02893	328.53424	606.69788	1594.31970	340.60208	469.69467							
776	6.458	1061.37598	329.30499	606.04608	1594.43115	342.27200	455.01627							
777	6.467	1061.02344	329.96463	603.40283	1593.96436	344.43433	440.48706							
778	6.475	1061.16345	330.09732	598.60742	1595.54700	347.40265	425.41608							
779	6.483	1061.36743	329.81256	592.41479	1594.71533	350.83313	408.85068							
780	6.492	1061.53735	329.18213	584.76886	1594.44250	354.90344	393.44553							
781	6.500	1062.38477	329.02344	574.89075	1593.98083	359.84482	377.93964							
782	6.508	1063.39893	328.37939	563.07617	1597.77344	366.56583	363.44989							
783	6.517	1064.39063	328.01959	550.63214	1598.70142	372.95291	348.71500							
784	6.525	1065.43762	327.75824	536.58325	1599.43250	379.74387	334.48242							
785	6.533	1067.18347	328.16418	521.38867	1600.19727	387.03046	320.70276							
786	6.542	1068.98206	328.97333	505.64359	1600.90942	394.47128	307.59320							
787	6.550	1071.29785	330.00009	488.68845	1601.53333	402.19916	295.05923							
788	6.558	1074.89575	332.61526	469.01660	1601.75732	409.81039	283.32431							
789	6.567	1075.94629	335.79428	452.26172	1599.61926	416.57962	272.38068							
790	6.575	1078.66528	339.53583	432.93436	1600.47961	424.53455	262.86368							
791	6.583	1082.70105	344.55972	411.53775	1600.79602	431.58121	253.41608							
792	6.592	1085.53809	350.08420	392.18604	1599.87231	438.52115	245.09854							
